<svg xmlns="http://www.w3.org/2000/svg" viewBox="0 0 64 64">
  <defs>
    <linearGradient id="bg" x1="0" y1="0" x2="1" y2="1">
      <stop offset="0%" stop-color="#1d518a"/>
      <stop offset="100%" stop-color="#0f2f55"/>
    </linearGradient>
  </defs>
  <rect x="2" y="2" width="60" height="60" rx="14" fill="url(#bg)"/>
  <g fill="#ffffff">
    <path d="M32 13c3.6 5.4 5.4 10 5.4 14.5s-1.8 8.1-5.4 10.8c-3.6-2.7-5.4-6.3-5.4-10.8S28.4 18.4 32 13z" opacity="0.95"/>
    <path d="M16 23c5.4.9 9.9 3.6 12.6 7.2s3.6 8.1 1.8 12.6c-4.5 0-9-2.7-11.7-6.3s-3.6-8.1-2.7-13.5z" opacity="0.85"/>
    <path d="M48 23c-5.4.9-9.9 3.6-12.6 7.2s-3.6 8.1-1.8 12.6c4.5 0 9-2.7 11.7-6.3s3.6-8.1 2.7-13.5z" opacity="0.85"/>
    <path d="M10 36c4.5-.9 9 0 12.6 2.7s5.4 6.3 5.4 10.8c-4.5.9-9-.9-12.6-3.6s-5.4-6.3-5.4-9.9z" opacity="0.7"/>
    <path d="M54 36c-4.5-.9-9 0-12.6 2.7s-5.4 6.3-5.4 10.8c4.5.9 9-.9 12.6-3.6s5.4-6.3 5.4-9.9z" opacity="0.7"/>
  </g>
  <path d="M32 48.5c-.5 0-1-.2-1.4-.5-3.6-2.8-5.6-5.1-5.6-7.7 0-1.9 1.5-3.4 3.4-3.4 1.1 0 2.2.5 2.8 1.4.7-.9 1.7-1.4 2.8-1.4 1.9 0 3.4 1.5 3.4 3.4 0 2.6-2 4.9-5.6 7.7-.4.3-.9.5-1.4.5z" fill="#f5c558"/>
</svg>
