<svg xmlns="http://www.w3.org/2000/svg" viewBox="0 0 64 64">
  <defs>
    <linearGradient id="g" x1="0" y1="0" x2="1" y2="1">
      <stop offset="0%" stop-color="#52bd8d"/>
      <stop offset="100%" stop-color="#1a6948"/>
    </linearGradient>
  </defs>
  <rect x="4" y="4" width="56" height="56" rx="14" fill="url(#g)"/>
  <path d="M32 47.5c-.6 0-1.2-.2-1.7-.6-7.6-6-12.3-10.7-12.3-16.3 0-3.8 3-6.8 6.8-6.8 2.2 0 4.3 1 5.6 2.7 1.4-1.6 3.4-2.7 5.6-2.7 3.8 0 6.8 3 6.8 6.8 0 5.6-4.7 10.3-12.3 16.3-.5.4-1.1.6-1.7.6h.2z" fill="#fff"/>
</svg>
